<?xml version="1.0" encoding="UTF-8"?>
<svg xmlns="http://www.w3.org/2000/svg" xmlns:xlink="http://www.w3.org/1999/xlink" viewBox="0 0 100 100" width="100px" height="100px">
<g id="surface7395">
<path style=" stroke:none;fill-rule:nonzero;fill:rgb(65.098041%,7.843138%,7.843138%);fill-opacity:1;" d="M 50 2 C 22.429688 2 0 21.921875 0 46.398438 C 0 58.226562 5.148438 69.289062 14.523438 77.671875 C 12.789062 82.789062 8.34375 86.3125 5.039062 88.929688 C 2.007812 91.328125 -0.1875 93.0625 0.46875 95.515625 L 0.679688 96.320312 L 1.398438 96.734375 C 3.21875 97.773438 5.640625 98.304688 8.617188 98.304688 C 18.515625 98.304688 32.742188 92.625 39.007812 89.890625 C 42.570312 90.632812 46.109375 91 49.796875 91 C 77.375 91 99.796875 71.078125 99.796875 46.601562 C 99.796875 22.007812 77.460938 2 50 2 Z M 53.203125 68 C 53.203125 68.398438 53 68.796875 52.398438 68.796875 L 47.804688 68.796875 L 47.804688 68.601562 C 47.398438 68.601562 47 68.398438 47 67.804688 L 47 41 C 47 40.601562 47.203125 40.203125 47.804688 40.203125 L 52.398438 40.203125 C 52.804688 40.203125 53.203125 40.398438 53.203125 41 Z M 53.203125 31.601562 C 53.203125 32 53 32.398438 52.398438 32.398438 L 47.601562 32.398438 C 47.203125 32.398438 46.804688 32.203125 46.804688 31.601562 L 46.804688 26.398438 C 46.804688 26 47 25.601562 47.601562 25.601562 L 52.398438 25.601562 C 52.804688 25.601562 53.203125 25.796875 53.203125 26.398438 Z M 53.203125 31.601562 "/>
</g>
</svg>
